<svg width="30" height="30" viewBox="0 0 30 30" fill="none" xmlns="http://www.w3.org/2000/svg">
<path fill-rule="evenodd" clip-rule="evenodd" d="M14.9992 0C15.81 0 18.8551 9.23627 19.6501 9.84452C20.4451 10.4528 29.7461 10.6343 29.9936 11.4473C30.2486 12.2625 22.8227 18.1508 22.5227 19.1363C22.2159 20.1165 24.9242 29.4631 24.271 29.9678C23.6117 30.4726 15.9833 24.8753 15 24.8753C14.0167 24.8753 6.38906 30.4726 5.72979 29.9678C5.07653 29.4623 7.78409 20.1158 7.47658 19.1363C7.17733 18.1515 -0.248587 12.2625 0.00641903 11.4473C0.253924 10.6343 9.55488 10.4528 10.3499 9.84452C11.1449 9.23627 14.1817 0 14.9992 0Z" fill="#47817E"/>
</svg>
