<svg width="25" height="25" viewBox="0 0 30 30" fill="none" xmlns="http://www.w3.org/2000/svg">
<path d="M15 30C14.0052 29.9961 13.0523 29.6792 12.3471 29.1179C11.6419 28.5566 11.2411 27.7958 11.2312 27H18.7312C18.7352 27.401 18.6396 27.7987 18.45 28.17C18.2075 28.6151 17.8363 29.0077 17.3668 29.3155C16.8974 29.6232 16.3432 29.8373 15.75 29.94H15.6619C15.444 29.9763 15.2225 29.9964 15 30ZM30 25.5H0V22.5L3.75 21V12.75C3.65122 10.6337 4.24863 8.53369 5.4825 6.66C6.08969 5.8009 6.91768 5.05456 7.91184 4.47022C8.906 3.88588 10.0437 3.47681 11.25 3.27V0H18.75V3.27C23.5856 4.191 26.25 7.557 26.25 12.75V21L30 22.5V25.5Z" fill="#47817E"/>
</svg>
