<svg width="40" height="38" viewBox="0 0 40 38" fill="none" xmlns="http://www.w3.org/2000/svg">
<path d="M33.7148 36.9911H23.0298V28.1473V27.1473H22.0298H17.1079H16.1079V28.1473V36.9911H6.12597C5.90043 36.9911 5.71973 36.8104 5.71973 36.5848V23.6781V22.6781H4.71973H2.8125C1.81351 22.6781 1 21.8646 1 20.8656C1 20.3855 1.19218 19.9232 1.53302 19.5822C1.53308 19.5822 1.53314 19.5821 1.53319 19.582C1.53322 19.582 1.53325 19.582 1.53328 19.582L19.6341 1.49432L19.635 1.49337C19.6725 1.45584 19.717 1.42608 19.7659 1.40577C19.8149 1.38545 19.8674 1.375 19.9204 1.375C19.9734 1.375 20.0259 1.38545 20.0749 1.40577C20.1238 1.42608 20.1683 1.45584 20.2058 1.49337L20.2067 1.49432L38.3075 19.5819C38.3076 19.582 38.3077 19.5821 38.3077 19.5822C39.0159 20.2905 39.0158 21.4381 38.3105 22.1462L38.309 22.1477C37.9717 22.4878 37.512 22.6781 37.0283 22.6781H35.1211H34.1211V23.6781V36.5848C34.1211 36.8104 33.9404 36.9911 33.7148 36.9911Z" fill="#000" stroke="#F1FAEE" stroke-width="2"/>
</svg>
