<svg width="40" height="40" viewBox="0 0 40 40" fill="none" xmlns="http://www.w3.org/2000/svg">
<path d="M36.3148 2.46669L37.2982 3.45002C38.6532 4.80669 38.4482 7.21169 36.8365 8.82169L16.5582 29.1L9.98818 31.5034C9.16318 31.8067 8.35984 31.4134 8.19651 30.6284C8.14131 30.3436 8.1673 30.049 8.27151 29.7784L10.7215 23.1517L30.9432 2.92836C32.5548 1.31836 34.9598 1.11169 36.3148 2.46836V2.46669ZM15.6732 4.48336C15.892 4.48336 16.1088 4.52646 16.311 4.61022C16.5132 4.69398 16.6969 4.81675 16.8517 4.97151C17.0065 5.12627 17.1292 5.31001 17.213 5.51222C17.2967 5.71443 17.3398 5.93115 17.3398 6.15002C17.3398 6.36889 17.2967 6.58562 17.213 6.78783C17.1292 6.99004 17.0065 7.17377 16.8517 7.32853C16.6969 7.4833 16.5132 7.60606 16.311 7.68982C16.1088 7.77358 15.892 7.81669 15.6732 7.81669H9.00651C8.12246 7.81669 7.27461 8.16788 6.64949 8.793C6.02437 9.41812 5.67318 10.266 5.67318 11.15V31.15C5.67318 32.0341 6.02437 32.8819 6.64949 33.507C7.27461 34.1322 8.12246 34.4834 9.00651 34.4834H29.0065C29.8906 34.4834 30.7384 34.1322 31.3635 33.507C31.9887 32.8819 32.3398 32.0341 32.3398 31.15V24.4834C32.3398 24.0413 32.5154 23.6174 32.828 23.3048C33.1406 22.9923 33.5645 22.8167 34.0065 22.8167C34.4485 22.8167 34.8725 22.9923 35.185 23.3048C35.4976 23.6174 35.6732 24.0413 35.6732 24.4834V31.15C35.6732 32.9181 34.9708 34.6138 33.7206 35.8641C32.4703 37.1143 30.7746 37.8167 29.0065 37.8167H9.00651C7.2384 37.8167 5.54271 37.1143 4.29247 35.8641C3.04222 34.6138 2.33984 32.9181 2.33984 31.15V11.15C2.33984 9.38191 3.04222 7.68622 4.29247 6.43598C5.54271 5.18573 7.2384 4.48336 9.00651 4.48336H15.6732Z" fill="#F1FAEE"/>
</svg>
