<svg width="24" height="22" viewBox="0 0 24 22" fill="none" xmlns="http://www.w3.org/2000/svg">
<path d="M7.63749 21H7.53749C5.52294 20.9824 3.53752 20.517 1.72499 19.6375C1.39158 19.4809 1.11707 19.2217 0.941622 18.8978C0.766179 18.5739 0.699025 18.2023 0.749992 17.8375C0.805422 17.4702 0.975476 17.1299 1.23588 16.865C1.49627 16.6001 1.8337 16.4242 2.19999 16.3625C3.32325 16.2127 4.40385 15.834 5.37499 15.25C3.68894 13.9318 2.39093 12.182 1.61852 10.186C0.8461 8.19008 0.628056 6.02233 0.987492 3.91253C1.03623 3.57834 1.17995 3.26519 1.40155 3.01035C1.62316 2.75551 1.91331 2.56969 2.23749 2.47503C2.55288 2.37597 2.89042 2.37174 3.2082 2.46285C3.52598 2.55396 3.81 2.73641 4.02499 2.98753C4.75499 3.94476 5.67236 4.74323 6.72112 5.33423C7.76989 5.92524 8.92806 6.29638 10.125 6.42503C10.1822 4.95234 10.815 3.56092 11.8875 2.55003C12.423 2.03724 13.0552 1.63617 13.7473 1.37016C14.4393 1.10416 15.1774 0.978548 15.9185 1.00065C16.6596 1.02276 17.3889 1.19213 18.0639 1.49891C18.7388 1.80569 19.346 2.24374 19.85 2.78753C19.9813 2.90361 20.1444 2.97759 20.3183 2.99988C20.4921 3.02217 20.6686 2.99173 20.825 2.91253C21.123 2.77196 21.4549 2.71904 21.7819 2.75996C22.1089 2.80087 22.4175 2.93392 22.6717 3.14358C22.9259 3.35325 23.1152 3.63088 23.2176 3.94409C23.32 4.25731 23.3313 4.59318 23.25 4.91253C22.9617 6.10017 22.4154 7.20977 21.65 8.16253C21.4813 11.7185 19.9136 15.0635 17.2887 17.4683C14.6638 19.8731 11.1946 21.1426 7.63749 21ZM7.63749 18.5H7.73749C9.19083 18.55 10.6396 18.311 11.9999 17.7969C13.3602 17.2827 14.6049 16.5037 15.6618 15.5049C16.7187 14.5061 17.5669 13.3074 18.1571 11.9784C18.7473 10.6493 19.0678 9.21636 19.1 7.76253C19.1206 7.36409 19.2849 6.98663 19.5625 6.70003C19.8674 6.31408 20.1274 5.89472 20.3375 5.45003C19.8872 5.45088 19.4418 5.35669 19.0303 5.1736C18.6189 4.99051 18.2508 4.72265 17.95 4.38753C17.6607 4.10072 17.3172 3.8745 16.9394 3.72211C16.5617 3.56971 16.1573 3.49421 15.75 3.50003C15.3386 3.48939 14.9292 3.56011 14.5452 3.70812C14.1612 3.85613 13.8103 4.07852 13.5125 4.36253C13.1107 4.74378 12.8161 5.22386 12.6582 5.75473C12.5002 6.28561 12.4845 6.84865 12.6125 7.38753L12.9375 8.81253L11.475 8.91253C9.97636 9.03473 8.46907 8.82973 7.05751 8.31173C5.64595 7.79372 4.36385 6.97509 3.29999 5.91253C3.25437 7.55802 3.66599 9.18393 4.48911 10.6095C5.31223 12.0351 6.51458 13.2044 7.96249 13.9875L9.14999 14.6625L8.36249 15.7875C7.51086 16.9044 6.34397 17.7404 5.01249 18.1875C5.86663 18.4016 6.74445 18.5066 7.62499 18.5H7.63749Z" fill="#47817E"/>
</svg>
