<svg width="22" height="21" viewBox="0 0 22 21" fill="none" xmlns="http://www.w3.org/2000/svg">
<path d="M10.6274 12C9.96881 13.0446 9.61965 14.2595 9.62154 15.5C9.62154 17.13 10.2121 18.62 11.1884 19.761C10.405 19.921 9.55461 20.001 8.63733 20.001C5.27133 20.001 2.78718 18.929 1.26953 16.764C0.943087 16.2983 0.767634 15.7408 0.767578 15.169V14.249C0.767449 13.9536 0.824607 13.661 0.935788 13.3881C1.04697 13.1151 1.20999 12.867 1.41555 12.6581C1.6211 12.4492 1.86516 12.2834 2.13377 12.1703C2.40239 12.0572 2.69031 11.999 2.98107 11.999H10.6284L10.6274 12ZM16.0189 10C17.4546 10 18.8314 10.5795 19.8466 11.6109C20.8618 12.6424 21.4321 14.0413 21.4321 15.5C21.4321 16.9587 20.8618 18.3577 19.8466 19.3891C18.8314 20.4206 17.4546 21 16.0189 21C14.5832 21 13.2064 20.4206 12.1912 19.3891C11.1761 18.3577 10.6057 16.9587 10.6057 15.5C10.6057 14.0413 11.1761 12.6424 12.1912 11.6109C13.2064 10.5795 14.5832 10 16.0189 10ZM16.0189 17.75C15.8558 17.75 15.6993 17.8159 15.5839 17.9331C15.4686 18.0503 15.4038 18.2093 15.4038 18.375C15.4038 18.5408 15.4686 18.6998 15.5839 18.817C15.6993 18.9342 15.8558 19 16.0189 19C16.182 19 16.3385 18.9342 16.4539 18.817C16.5692 18.6998 16.634 18.5408 16.634 18.375C16.634 18.2093 16.5692 18.0503 16.4539 17.9331C16.3385 17.8159 16.182 17.75 16.0189 17.75ZM16.0189 11.874C14.9875 11.874 14.1843 12.691 14.1952 13.828C14.1958 13.8937 14.2092 13.9586 14.2345 14.019C14.2598 14.0794 14.2966 14.1342 14.3428 14.1801C14.3889 14.2261 14.4435 14.2624 14.5035 14.2869C14.5634 14.3114 14.6276 14.3237 14.6922 14.323C14.7568 14.3224 14.8207 14.3088 14.8801 14.2831C14.9396 14.2573 14.9935 14.2199 15.0387 14.173C15.084 14.1262 15.1197 14.0707 15.1438 14.0098C15.1679 13.9488 15.18 13.8837 15.1794 13.818C15.1735 13.239 15.5337 12.874 16.0189 12.874C16.4844 12.874 16.8594 13.266 16.8594 13.824C16.8594 14.016 16.8043 14.166 16.639 14.384L16.5464 14.501L16.448 14.614L16.1872 14.904L16.0534 15.061C15.6754 15.518 15.5268 15.854 15.5268 16.371C15.5268 16.5036 15.5786 16.6308 15.6709 16.7246C15.7632 16.8184 15.8884 16.871 16.0189 16.871C16.1494 16.871 16.2746 16.8184 16.3669 16.7246C16.4592 16.6308 16.511 16.5036 16.511 16.371C16.511 16.168 16.5691 16.012 16.7462 15.781L16.8299 15.677L16.9283 15.561L17.1911 15.271L17.323 15.116C17.695 14.666 17.8436 14.333 17.8436 13.823C17.8436 12.72 17.0336 11.873 16.0189 11.873V11.874ZM8.63733 0.00402832C9.94247 0.00402832 11.1942 0.530813 12.117 1.46849C13.0399 2.40618 13.5584 3.67795 13.5584 5.00403C13.5584 6.33011 13.0399 7.60188 12.117 8.53956C11.1942 9.47724 9.94247 10.004 8.63733 10.004C7.33218 10.004 6.08049 9.47724 5.15762 8.53956C4.23474 7.60188 3.71627 6.33011 3.71627 5.00403C3.71627 3.67795 4.23474 2.40618 5.15762 1.46849C6.08049 0.530813 7.33218 0.00402832 8.63733 0.00402832Z" fill="#F1FAEE"/>
</svg>
