<svg width="50" height="30" viewBox="0 0 50 50" fill="none" xmlns="http://www.w3.org/2000/svg">
<path d="M26.0859 22.8571H39.8288V32C39.8288 36.4183 36.2471 40 31.8288 40H26.0859V22.8571Z" fill="#47817E" />
<path d="M22.9141 40H17.1712C12.7529 40 9.1712 36.4183 9.1712 32L9.1712 22.8571L22.9141 22.8571L22.9141 40Z" fill="#47817E" />
<path d="M26.0859 10H37.6431C40.6018 10 43.0002 12.3985 43.0002 15.3571C43.0002 18.3158 40.6018 20.7143 37.6431 20.7143H26.0859V10Z" fill="#47817E" />
<path d="M22.5016 20.2183L11.4448 20.3161C8.76242 20.3399 6.56916 18.1846 6.54607 15.5021C6.52297 12.8197 8.67877 10.6259 11.3612 10.6022L22.4179 10.5044L22.5016 20.2183Z" fill="#47817E" />
</svg>
