<svg width="30" height="30" viewBox="0 0 40 38" fill="none" xmlns="http://www.w3.org/2000/svg">
<path d="M39.0146 18.8748L20.9136 0.786951C20.7832 0.656364 20.6284 0.552761 20.458 0.482073C20.2876 0.411385 20.1049 0.375 19.9204 0.375C19.7359 0.375 19.5532 0.411385 19.3828 0.482073C19.2124 0.552761 19.0576 0.656364 18.9272 0.786951L0.826172 18.8748C0.298828 19.4022 0 20.1185 0 20.8656C0 22.4168 1.26123 23.6781 2.8125 23.6781H4.71973V36.5848C4.71973 37.3626 5.34814 37.9911 6.12597 37.9911H17.1079V28.1473H22.0298V37.9911H33.7148C34.4927 37.9911 35.1211 37.3626 35.1211 36.5848V23.6781H37.0283C37.7754 23.6781 38.4917 23.3836 39.019 22.8519C40.1133 21.7533 40.1133 19.9735 39.0146 18.8748Z" fill="#47817E" stroke="#F1FAEE"/>
</svg>
