<svg width="21" height="21" viewBox="0 0 21 21" fill="none" xmlns="http://www.w3.org/2000/svg">
<path d="M6.12468 0.083313H14.8747C18.208 0.083313 20.9163 2.79165 20.9163 6.12498V14.875C20.9163 16.4773 20.2798 18.0141 19.1468 19.1471C18.0137 20.2801 16.477 20.9166 14.8747 20.9166H6.12468C2.79134 20.9166 0.0830078 18.2083 0.0830078 14.875V6.12498C0.0830078 4.52263 0.719539 2.98591 1.85257 1.85288C2.9856 0.719844 4.52233 0.083313 6.12468 0.083313ZM5.91634 2.16665C4.92178 2.16665 3.96795 2.56173 3.26469 3.265C2.56143 3.96826 2.16634 4.92208 2.16634 5.91665V15.0833C2.16634 17.1562 3.84342 18.8333 5.91634 18.8333H15.083C16.0776 18.8333 17.0314 18.4382 17.7347 17.735C18.4379 17.0317 18.833 16.0779 18.833 15.0833V5.91665C18.833 3.84373 17.1559 2.16665 15.083 2.16665H5.91634ZM15.9684 3.72915C16.3138 3.72915 16.645 3.86633 16.8891 4.11052C17.1333 4.35471 17.2705 4.6859 17.2705 5.03123C17.2705 5.37656 17.1333 5.70775 16.8891 5.95194C16.645 6.19613 16.3138 6.33331 15.9684 6.33331C15.6231 6.33331 15.2919 6.19613 15.0477 5.95194C14.8035 5.70775 14.6663 5.37656 14.6663 5.03123C14.6663 4.6859 14.8035 4.35471 15.0477 4.11052C15.2919 3.86633 15.6231 3.72915 15.9684 3.72915ZM10.4997 5.29165C11.881 5.29165 13.2058 5.84038 14.1825 6.81713C15.1593 7.79388 15.708 9.11864 15.708 10.5C15.708 11.8813 15.1593 13.2061 14.1825 14.1828C13.2058 15.1596 11.881 15.7083 10.4997 15.7083C9.11834 15.7083 7.79358 15.1596 6.81683 14.1828C5.84008 13.2061 5.29134 11.8813 5.29134 10.5C5.29134 9.11864 5.84008 7.79388 6.81683 6.81713C7.79358 5.84038 9.11834 5.29165 10.4997 5.29165ZM10.4997 7.37498C9.67087 7.37498 8.87602 7.70422 8.28997 8.29027C7.70391 8.87632 7.37467 9.67118 7.37467 10.5C7.37467 11.3288 7.70391 12.1236 8.28997 12.7097C8.87602 13.2957 9.67087 13.625 10.4997 13.625C11.3285 13.625 12.1233 13.2957 12.7094 12.7097C13.2954 12.1236 13.6247 11.3288 13.6247 10.5C13.6247 9.67118 13.2954 8.87632 12.7094 8.29027C12.1233 7.70422 11.3285 7.37498 10.4997 7.37498Z" fill="#47817E"/>
</svg>
