<svg width="30" height="40" viewBox="0 0 40 40" fill="none" xmlns="http://www.w3.org/2000/svg">
<g clip-path="url(#clip0)">
<path d="M33.7 37.5L31.2987 29.0938C31.2308 28.8569 31.2345 28.6051 31.3092 28.3703C31.3839 28.1354 31.5264 27.9279 31.7187 27.7738L37.3425 23.275L35.65 16.5013L32.2275 20.7813C32.11 20.9276 31.9612 21.0456 31.792 21.1268C31.6229 21.2079 31.4376 21.25 31.25 21.25H25V18.75H30.65L35.275 12.9688C35.4207 12.7872 35.6141 12.65 35.8336 12.5725C36.0531 12.4949 36.2898 12.4802 36.5172 12.53C36.7445 12.5798 36.9535 12.692 37.1205 12.8541C37.2875 13.0162 37.406 13.2217 37.4625 13.4475L39.9625 23.4475C40.0208 23.6795 40.0113 23.9233 39.935 24.15C39.8588 24.3767 39.7191 24.5767 39.5325 24.7263L33.9325 29.2063L36.105 36.8138L33.7 37.5Z" fill="#47817E"/>
<path d="M28.75 6.875C28.75 6.00971 29.0066 5.16385 29.4873 4.44438C29.9681 3.72492 30.6513 3.16416 31.4508 2.83303C32.2502 2.5019 33.1299 2.41526 33.9785 2.58407C34.8272 2.75288 35.6067 3.16956 36.2186 3.78141C36.8304 4.39326 37.2471 5.17282 37.4159 6.02148C37.5847 6.87015 37.4981 7.74982 37.167 8.54924C36.8358 9.34867 36.2751 10.032 35.5556 10.5127C34.8362 10.9934 33.9903 11.25 33.125 11.25C31.9651 11.2487 30.8531 10.7873 30.0329 9.96713C29.2127 9.14695 28.7513 8.03492 28.75 6.875ZM31.25 6.875C31.25 7.24584 31.36 7.60835 31.566 7.9167C31.772 8.22504 32.0649 8.46536 32.4075 8.60728C32.7501 8.74919 33.1271 8.78632 33.4908 8.71397C33.8545 8.64163 34.1886 8.46305 34.4508 8.20083C34.713 7.9386 34.8916 7.60451 34.964 7.2408C35.0363 6.87708 34.9992 6.50008 34.8573 6.15747C34.7154 5.81486 34.475 5.52202 34.1667 5.316C33.8584 5.10997 33.4958 5 33.125 5C32.6279 5.00066 32.1514 5.19842 31.7999 5.54991C31.4484 5.90139 31.2507 6.37792 31.25 6.875Z" fill="#47817E"/>
<path d="M25.005 23.75C24.3406 23.75 23.7035 23.4861 23.2337 23.0163C22.7639 22.5465 22.5 21.9094 22.5 21.245V18.755C22.5 18.0906 22.7639 17.4535 23.2337 16.9837C23.7035 16.5139 24.3406 16.25 25.005 16.25H27.5V12.5H12.5V16.25H14.995C15.6594 16.25 16.2965 16.5139 16.7663 16.9837C17.2361 17.4535 17.5 18.0906 17.5 18.755V21.245C17.5 21.9094 17.2361 22.5465 16.7663 23.0163C16.2965 23.4861 15.6594 23.75 14.995 23.75H12.5V27.5H27.5V23.75H25.005Z" fill="#47817E"/>
<path d="M6.2999 37.5L8.70115 29.0938C8.76891 28.8568 8.7652 28.6052 8.69048 28.3704C8.61576 28.1355 8.47336 27.928 8.28115 27.7738L2.6574 23.275L4.35115 16.5025L7.77365 20.7813C7.891 20.9274 8.03961 21.0454 8.20856 21.1265C8.3775 21.2076 8.56249 21.2498 8.7499 21.25H14.9999V18.75H9.3499L4.72615 12.9688C4.58048 12.7872 4.38703 12.65 4.16756 12.5725C3.9481 12.4949 3.71135 12.4802 3.48398 12.53C3.25662 12.5798 3.04765 12.692 2.88064 12.8541C2.71362 13.0162 2.59518 13.2217 2.53865 13.4475L0.038653 23.4475C-0.0196513 23.6795 -0.0101234 23.9233 0.0661038 24.15C0.142331 24.3767 0.282051 24.5767 0.468653 24.7263L6.06865 29.2063L3.8949 36.8138L6.2999 37.5Z" fill="#47817E"/>
<path d="M6.875 11.25C6.00971 11.25 5.16385 10.9934 4.44438 10.5127C3.72492 10.032 3.16416 9.34867 2.83303 8.54924C2.5019 7.74982 2.41526 6.87015 2.58407 6.02148C2.75288 5.17282 3.16956 4.39326 3.78141 3.78141C4.39326 3.16956 5.17282 2.75288 6.02148 2.58407C6.87015 2.41526 7.74982 2.5019 8.54924 2.83303C9.34867 3.16416 10.032 3.72492 10.5127 4.44438C10.9934 5.16385 11.25 6.00971 11.25 6.875C11.2487 8.03492 10.7873 9.14695 9.96713 9.96713C9.14695 10.7873 8.03492 11.2487 6.875 11.25ZM6.875 5C6.50416 5 6.14165 5.10997 5.83331 5.316C5.52497 5.52202 5.28464 5.81486 5.14273 6.15747C5.00081 6.50008 4.96368 6.87708 5.03603 7.2408C5.10838 7.60451 5.28695 7.9386 5.54918 8.20083C5.8114 8.46305 6.14549 8.64163 6.50921 8.71397C6.87292 8.78632 7.24992 8.74919 7.59253 8.60728C7.93514 8.46536 8.22798 8.22504 8.43401 7.9167C8.64003 7.60835 8.75 7.24584 8.75 6.875C8.74934 6.37792 8.55158 5.90139 8.2001 5.54991C7.84861 5.19842 7.37208 5.00066 6.875 5Z" fill="#47817E"/>
</g>
<defs>
<clipPath id="clip0">
<rect width="40" height="40" fill="white"/>
</clipPath>
</defs>
</svg>
