

<svg width="40" height="40" viewBox="0 0 40 40" fill="none" xmlns="http://www.w3.org/2000/svg">
<g clip-path="url(#clip0_34:1585)">
<path d="M37.022 1.75958L35.3148 0.0524758V0.744879C33.6138 0.242786 31.6134 0.845313 30.2364 2.22088L30.236 2.22128L10.0144 22.4446L9.85951 22.5995L9.78356 22.8049L7.33558 29.4261C7.16624 29.8699 7.12438 30.3522 7.21479 30.8187L7.21469 30.8187L7.21748 30.8321C7.52629 32.3162 9.0363 32.9183 10.3324 32.4423C10.3327 32.4421 10.333 32.442 10.3333 32.4419L16.9017 30.0392L17.1091 29.9633L17.2653 29.8071L37.5433 9.52916C37.5434 9.52904 37.5435 9.52892 37.5436 9.5288C39.4277 7.64635 39.8591 4.59902 38.0057 2.74335L38.0053 2.74291L37.022 1.75958ZM16.6937 3.68634C16.3701 3.55233 16.0234 3.48336 15.6732 3.48336H9.00651C6.97318 3.48336 5.02314 4.29109 3.58536 5.72887C2.14758 7.16665 1.33984 9.11669 1.33984 11.15V31.15C1.33984 33.1833 2.14758 35.1334 3.58536 36.5712C5.02314 38.0089 6.97318 38.8167 9.00651 38.8167H29.0065C31.0398 38.8167 32.9899 38.0089 34.4277 36.5712C35.8654 35.1334 36.6732 33.1833 36.6732 31.15V24.4834C36.6732 23.7761 36.3922 23.0978 35.8921 22.5977C35.392 22.0976 34.7138 21.8167 34.0065 21.8167C33.2993 21.8167 32.621 22.0976 32.1209 22.5977C31.6208 23.0978 31.3398 23.7761 31.3398 24.4834V31.15C31.3398 31.7689 31.094 32.3624 30.6564 32.7999C30.2188 33.2375 29.6254 33.4834 29.0065 33.4834H9.00651C8.38767 33.4834 7.79418 33.2375 7.35659 32.7999C6.91901 32.3624 6.67318 31.7689 6.67318 31.15V11.15C6.67318 10.5312 6.91901 9.93769 7.35659 9.50011C7.79418 9.06252 8.38767 8.81669 9.00651 8.81669H15.6732C16.0234 8.81669 16.3701 8.74771 16.6937 8.6137C17.0172 8.47969 17.3112 8.28326 17.5588 8.03564C17.8064 7.78802 18.0028 7.49405 18.1369 7.17051C18.2709 6.84698 18.3398 6.50021 18.3398 6.15002C18.3398 5.79983 18.2709 5.45307 18.1369 5.12953C18.0028 4.80599 17.8064 4.51202 17.5588 4.2644C17.3112 4.01678 17.0172 3.82036 16.6937 3.68634Z" fill="#47817E" stroke="#F1FAEE" stroke-width="1"/>
</g>
<defs>
<clipPath id="clip0_34:1585">
<rect width="40" height="40" fill="white"/>
</clipPath>
</defs>
</svg>
