<svg width="26" height="26" viewBox="0 0 26 26" fill="none" xmlns="http://www.w3.org/2000/svg">
<path d="M13.1701 0.812503C6.31578 0.719925 0.720078 6.31563 0.812656 13.1699C0.904062 19.7436 6.2566 25.0961 12.8302 25.1875C19.6857 25.2812 25.2802 19.6855 25.1865 12.8312C25.0963 6.25645 19.7437 0.90391 13.1701 0.812503ZM12.1863 12.09L15.2068 8.63301C15.3704 8.44575 15.6018 8.33117 15.8499 8.31447C16.098 8.29776 16.3426 8.38031 16.5298 8.54395C16.7171 8.70758 16.8317 8.9389 16.8484 9.18702C16.8651 9.43514 16.7825 9.67974 16.6189 9.86699L13.5984 13.324C13.5174 13.4167 13.4189 13.4926 13.3085 13.5473C13.1982 13.6019 13.0782 13.6343 12.9553 13.6426C12.8325 13.6508 12.7092 13.6348 12.5925 13.5955C12.4758 13.5561 12.3681 13.4941 12.2754 13.4131C12.1826 13.3321 12.1068 13.2336 12.0521 13.1232C11.9975 13.0129 11.9651 12.8929 11.9568 12.77C11.9485 12.6472 11.9645 12.5239 12.0039 12.4072C12.0433 12.2905 12.1053 12.1828 12.1863 12.09ZM9.90934 17.4133C9.73354 17.589 9.49517 17.6876 9.24664 17.6876C8.99811 17.6876 8.75974 17.589 8.58395 17.4133L5.77437 14.6008C5.68735 14.5137 5.61833 14.4103 5.57126 14.2965C5.52419 14.1827 5.49999 14.0608 5.50005 13.9377C5.5001 13.8145 5.52441 13.6926 5.57158 13.5789C5.61875 13.4652 5.68786 13.3618 5.77496 13.2748C5.86206 13.1878 5.96546 13.1188 6.07923 13.0717C6.19301 13.0246 6.31494 13.0004 6.43807 13.0005C6.5612 13.0005 6.68311 13.0248 6.79685 13.072C6.91058 13.1192 7.01391 13.1883 7.10094 13.2754L9.91344 16.0879C10.0886 16.2642 10.1865 16.5029 10.1858 16.7514C10.185 17 10.0856 17.238 9.90934 17.4133ZM20.2687 9.86699L13.7132 17.367C13.6288 17.4638 13.5253 17.5422 13.4093 17.5973C13.2933 17.6524 13.1672 17.6831 13.0388 17.6875H13.0072C12.884 17.6875 12.762 17.6633 12.6482 17.6161C12.5344 17.569 12.431 17.4998 12.3439 17.4127L9.53492 14.6002C9.35916 14.4243 9.26049 14.1858 9.2606 13.9371C9.26071 13.6884 9.35959 13.45 9.53551 13.2742C9.71142 13.0985 9.94995 12.9998 10.1986 12.9999C10.4473 13 10.6857 13.0989 10.8615 13.2748L12.6076 15.0227C12.653 15.0681 12.7072 15.1037 12.7669 15.1272C12.8266 15.1508 12.8906 15.1619 12.9547 15.1597C13.0189 15.1576 13.0819 15.1423 13.1399 15.1148C13.198 15.0873 13.2497 15.0481 13.292 14.9998L18.8584 8.63301C19.022 8.44575 19.2533 8.33117 19.5014 8.31447C19.7496 8.29776 19.9941 8.38031 20.1814 8.54395C20.3687 8.70758 20.4832 8.9389 20.4999 9.18702C20.5167 9.43514 20.4341 9.67974 20.2705 9.86699H20.2687Z" fill="#F1FAEE"/>
</svg>
