<svg width="44" height="42" viewBox="0 0 44 42" fill="none" xmlns="http://www.w3.org/2000/svg">
<path d="M15.4375 9.61522H19.7676V29.4375C19.7676 29.6953 19.9785 29.9062 20.2363 29.9062H23.752C24.0098 29.9062 24.2207 29.6953 24.2207 29.4375V9.61522H28.5625C28.9551 9.61522 29.1719 9.16405 28.9316 8.85936L22.3691 0.550778C22.3253 0.494753 22.2693 0.449442 22.2053 0.418281C22.1414 0.38712 22.0711 0.370926 22 0.370926C21.9289 0.370926 21.8586 0.38712 21.7947 0.418281C21.7307 0.449442 21.6747 0.494753 21.6309 0.550778L15.0684 8.8535C14.8281 9.16405 15.0449 9.61522 15.4375 9.61522ZM43.4453 27.6796H39.9297C39.6719 27.6796 39.4609 27.8906 39.4609 28.1484V37.1718H4.53906V28.1484C4.53906 27.8906 4.32812 27.6796 4.07031 27.6796H0.554688C0.296875 27.6796 0.0859375 27.8906 0.0859375 28.1484V39.7499C0.0859375 40.787 0.923828 41.6249 1.96094 41.6249H42.0391C43.0762 41.6249 43.9141 40.787 43.9141 39.7499V28.1484C43.9141 27.8906 43.7031 27.6796 43.4453 27.6796Z" fill="#47817E"/>
</svg>
